<svg xmlns="http://www.w3.org/2000/svg" width="208" height="90"><g data-name="ECI-LOGO _verde"><g data-name="Grupo 56543"><g fill="#008c2e"><path data-name="Trazado 1" d="M112.97 33.001c.034.24.067.482.095.722.116 1.426.229 2.848.357 4.274.1 1.176.181 2.352.285 3.527s.2 2.333.294 3.5c.032.454.07.908.1 1.371a5.891 5.891 0 0 1 6.314 3.518 4.176 4.176 0 0 1 1.657-1.243 4.2 4.2 0 0 1 5.779 2.1 8.11 8.11 0 0 1 .853 3.225c.07 1.528.037 3.051.055 4.583v.5h-4.085v-4.621a2.454 2.454 0 0 0-.294-1.234 1.376 1.376 0 0 0-1.244-.751 1.289 1.289 0 0 0-1.217.812 2.421 2.421 0 0 0-.23.975c-.029 1.848-.012 3.69-.012 5.539v.3h-3.884c-.021-.274-.037-.545-.055-.813-.095-1.633-.171-3.275-.262-4.906a8.63 8.63 0 0 0-.1-1.336 2.457 2.457 0 0 0-1.819-1.917.769.769 0 0 0-1.043.768 4.784 4.784 0 0 0 .046.662c.131 1.185.3 2.367.387 3.552.09 1.266.14 2.553.122 3.823a19.914 19.914 0 0 1-.748 5.559 7.453 7.453 0 0 1-1.272 2.554 3.8 3.8 0 0 1-2.23 1.387c-.032 0-.052.025-.082.032h-.8a3.633 3.633 0 0 1-1.773-.975 6.242 6.242 0 0 1-1.413-2.442 12.949 12.949 0 0 1-.621-3.244 18.955 18.955 0 0 1 .011-3.314 20.87 20.87 0 0 1 2.763-9.131 22.492 22.492 0 0 1 1.409-1.859.469.469 0 0 0 .134-.39c-.094-1.006-.161-2.014-.236-3.019-.067-.851-.145-1.7-.215-2.555-.064-.81-.122-1.617-.181-2.423-.087-1.042-.164-2.084-.251-3.129-.049-.56-.1-1.119-.139-1.676-.053-.713-.105-1.426-.163-2.174.481-.012.943-.021 1.4-.037.707-.024 1.407-.053 2.111-.08a1.37 1.37 0 0 1 .197-.014zm-1.555 25.578c-.037-.682-.055-1.354-.137-2.032a5.449 5.449 0 0 0-.3-1.191c-.067-.2-.25-.195-.358-.014a1.608 1.608 0 0 0-.195.422 11.048 11.048 0 0 0-.434 2.7 17.692 17.692 0 0 0 .039 3.486 8.936 8.936 0 0 0 .293 1.24c.023.076.125.171.189.168a.306.306 0 0 0 .229-.161 3.444 3.444 0 0 0 .244-.628 17.111 17.111 0 0 0 .43-3.99z"/><path data-name="Trazado 2" d="M28.07 45.27c.1-.446.159-.9.289-1.336a7.753 7.753 0 0 1 4.312-4.912 9.547 9.547 0 0 1 4.5-.925 8.506 8.506 0 0 1 2.946.611c.109.043.187.084.186.229-.005 1.444 0 2.892-.005 4.34a.92.92 0 0 1-.017.1c-.078-.03-.15-.051-.219-.079a7.132 7.132 0 0 0-2.987-.592 4.55 4.55 0 0 0-4.323 3.008 4.83 4.83 0 0 0 .011 3l.207-.139a5.031 5.031 0 0 1 2.83-1.007 3.651 3.651 0 0 1 2.965 1.414 4.068 4.068 0 0 1 .989 2.729A3.311 3.311 0 0 1 37.7 54.83a5.293 5.293 0 0 1-2.069.5c-.417.021-.833 0-1.3 0a2.56 2.56 0 0 0 1.259 1.139 4.108 4.108 0 0 0 2.408.2 8.7 8.7 0 0 0 3.029-1.18.249.249 0 0 0 .143-.3 22.646 22.646 0 0 1-.323-3.937 13.845 13.845 0 0 1 .963-5.33 6.325 6.325 0 0 1 1.982-2.72 3.07 3.07 0 0 1 2.027-.686 2.582 2.582 0 0 1 1.93 1.023 4.921 4.921 0 0 1 1 2.467 12.668 12.668 0 0 1-.289 4.756 26.563 26.563 0 0 1-1.66 4.883 2.588 2.588 0 0 1-.133.253.383.383 0 0 0 .19.615 1.76 1.76 0 0 0 .576.139 3.857 3.857 0 0 0 2.6-.812.179.179 0 0 1 .079-.035c.005.084.013.151.013.221v3.055a.3.3 0 0 1-.159.306 5.518 5.518 0 0 1-5.576.331 8.7 8.7 0 0 1-1.029-.682c-.465.262-.944.551-1.443.8a11.356 11.356 0 0 1-3.807 1.141 8.792 8.792 0 0 1-4.568-.585 6.011 6.011 0 0 1-3.8-5.037 8.986 8.986 0 0 1 .068-2.533.446.446 0 0 0-.034-.25 15.838 15.838 0 0 1-1.552-4.278 8.457 8.457 0 0 1-.155-3.024zm17.549 3.965c-.033-.22-.071-.583-.146-.942-.044-.214-.105-.473-.37-.491s-.374.212-.469.41a6.3 6.3 0 0 0-.51 3.7 1.526 1.526 0 0 0 .171.477.281.281 0 0 0 .5.064 1.8 1.8 0 0 0 .277-.424 7.123 7.123 0 0 0 .547-2.795zm-10.328 3.358a.926.926 0 0 0 .921-.907.943.943 0 0 0-.919-.917.933.933 0 0 0-.909.926.923.923 0 0 0 .907.898z"/><path data-name="Trazado 3" d="M82.727 51.483a2.669 2.669 0 0 1 2.612-1.3c.1.015.183.03.183.164v3.508c-.24.043-.471.081-.7.142a1.644 1.644 0 0 0-1.342 1.751v3.677h-3.236v-.233c0-1.048-.022-2.1 0-3.151a1.566 1.566 0 0 0-1.523-1.69c-.2-.032-.407-.032-.619-.049-.036.25-.053.486-.1.716a5.259 5.259 0 0 1-1.9 2.9 5.929 5.929 0 0 1-3.8 1.415 6.251 6.251 0 0 1-3.33-.894.5.5 0 0 0-.625.024 16.463 16.463 0 0 1-5.164 2.235 8.9 8.9 0 0 1-6.117-.591 8.644 8.644 0 0 1-3.444-3.182 11.755 11.755 0 0 1-1.733-4.941 12.324 12.324 0 0 1 .893-6.6 10.054 10.054 0 0 1 7.185-5.959 14.908 14.908 0 0 1 5.139-.276c.256.027.512.053.775.083v4.089c-.34-.068-.675-.141-1.011-.2a9.618 9.618 0 0 0-4.445.139 5.981 5.981 0 0 0-4.2 4.08 8.048 8.048 0 0 0 .948 7.173 4.875 4.875 0 0 0 3.4 2.243 5.792 5.792 0 0 0 3.029-.411 9.964 9.964 0 0 0 2.592-1.5.287.287 0 0 0 .088-.228 3.56 3.56 0 0 1 .525-2.7 2.885 2.885 0 0 1 2.649-1.346 1.426 1.426 0 0 1 1.354 1.432c.014.486-.006.988.046 1.475a5.251 5.251 0 0 0 .27 1.2 1.655 1.655 0 0 0 2.538.825 1.915 1.915 0 0 0 .558-.553.683.683 0 0 0-.407-1.1c-.32-.107-.65-.183-.962-.311a3.769 3.769 0 0 1-1.716-1.336 3.224 3.224 0 0 1-.451-2.567 4.407 4.407 0 0 1 1.875-2.8 3.192 3.192 0 0 1 3.847.136 6.861 6.861 0 0 1 1.853 2.339.316.316 0 0 0 .315.2 5.165 5.165 0 0 1 3.559 1.327c.215.208.392.431.592.645zm-7.574-1.3a.639.639 0 0 0-.65-.656.664.664 0 1 0-.011 1.327.646.646 0 0 0 .657-.675z"/><path data-name="Trazado 4" d="M86.628 53.94v-3.563h1.2c.174-2.684.344-5.347.516-8.037h3.544l-.656 8.471c.353 0 .689.006 1.027-.009.057 0 .126-.1.162-.168a11.723 11.723 0 0 1 1.982-2.866 6.067 6.067 0 0 1 3.222-1.853 3.8 3.8 0 0 1 4.517 2.85 4.051 4.051 0 0 1-.662 3.073 8.082 8.082 0 0 1-2.821 2.568c-.493.292-1.017.53-1.528.792-.05.03-.1.052-.175.094a2.841 2.841 0 0 0 2 1.234 4.538 4.538 0 0 0 2.713-.7c.357-.2.7-.422 1.076-.661v.234c0 1.2-.006 2.391 0 3.588a.53.53 0 0 1-.219.448 5.433 5.433 0 0 1-2.851 1.2 6.469 6.469 0 0 1-7.082-4.289 4.67 4.67 0 0 0-.5-.947 1 1 0 0 0-.488-.357.425.425 0 0 0-.6.446v4.356h-3.54v-5.818a9.522 9.522 0 0 0-.837-.086zm11.553-3.933c.006-.457-.253-.645-.668-.447a2.019 2.019 0 0 0-.583.422 2.15 2.15 0 0 0-.692 1.456c-.008.384.238.552.6.43a2.4 2.4 0 0 0 1.343-1.861z"/><path data-name="Trazado 5" d="M161.648 54.697c.306-.117.594-.219.868-.332a26.44 26.44 0 0 0 3.351-1.875c1.787-1.107 3.537-2.271 5.422-3.208a10.885 10.885 0 0 1 3.229-1.151 5.894 5.894 0 0 1 3.174.286 3.853 3.853 0 0 1 2.416 3.174 7.3 7.3 0 0 1-1.5 5.526 9.526 9.526 0 0 1-6.111 3.736c-.55.1-1.1.16-1.67.229-.009-.128-.015-.2-.015-.271V57.18c0-.164.055-.229.222-.286a11.9 11.9 0 0 0 3.719-1.761 2.085 2.085 0 0 0 .877-1 1.509 1.509 0 0 0-.877-1.939 1.556 1.556 0 0 0-1.191.1 23.61 23.61 0 0 0-1.721.947c-2.66 1.627-5.31 3.27-7.961 4.907a7.375 7.375 0 0 1-4.4 1.112 2.986 2.986 0 0 1-1.441-.451.286.286 0 0 0-.224-.012 10.129 10.129 0 0 1-4.039 1.657 11.209 11.209 0 0 1-2.553.225 6.3 6.3 0 0 1-3.738-1.139 11.914 11.914 0 0 1-1.071-1.069c-.163.1-.37.247-.582.4-1.135.78-2.253 1.56-3.381 2.339a.265.265 0 0 0-.14.286 9.107 9.107 0 0 1-.495 4.414 4.07 4.07 0 0 1-3.357 2.729 4.694 4.694 0 0 1-4.076-1.1 3.726 3.726 0 0 1-1.17-2.436 5.79 5.79 0 0 1 2.175-5.008 8.065 8.065 0 0 1 2.467-1.482.233.233 0 0 0 .18-.277c-.009-.349 0-.684 0-1.074-.265.166-.487.323-.737.46a7.983 7.983 0 0 1-3.168 1.092 4.155 4.155 0 0 1-3-.649 3.756 3.756 0 0 1-1.38-2.221 5.55 5.55 0 0 1 .938-4.554 10.034 10.034 0 0 1 3.987-3.447 15.447 15.447 0 0 1 5.474-1.57c.393-.041.791-.072 1.2-.111v4.051c-.536.066-1.071.112-1.592.195a9.9 9.9 0 0 0-4.359 1.576 2.922 2.922 0 0 0-1.342 1.87 2.53 2.53 0 0 0 .006.7c.038.294.14.358.431.329a2.708 2.708 0 0 0 1.331-.553 6.726 6.726 0 0 0 2.568-3.186c.043-.106.084-.181.227-.179 1.193.006 2.372.006 3.563.006a.728.728 0 0 1 .1.009v5.309c.812-.291 1.584-.561 2.355-.832-.158-.489-.3-.952-.434-1.42a13.282 13.282 0 0 1-.486-4.524 9.643 9.643 0 0 1 1.365-4.572 5.152 5.152 0 0 1 2.036-1.981 3.459 3.459 0 0 1 2.915-.036 4.133 4.133 0 0 1 2.761 3.506 9.49 9.49 0 0 1-.48 4.35 15.923 15.923 0 0 1-2.375 4.644c-.082.105-.055.169.018.268a2.57 2.57 0 0 0 1.553.861 3.375 3.375 0 0 0 1.794-.227c.137-.049.169-.1.122-.259a9.495 9.495 0 0 1-.545-3.055 5.24 5.24 0 0 1 1.481-3.9 5 5 0 0 1 6.175-.534 3.79 3.79 0 0 1 1.645 2.969 6.368 6.368 0 0 1-.475 2.784c-.023.058-.036.113-.058.161a.423.423 0 0 0-.001.105zm-12.8-6.059a1.129 1.129 0 0 0 0-.176 8.63 8.63 0 0 0-.18-1.009c-.107-.329-.357-.353-.579-.08a1.765 1.765 0 0 0-.241.393 6.343 6.343 0 0 0-.487 3.059 2.127 2.127 0 0 0 .211.712c.1.22.294.234.472.061a1.558 1.558 0 0 0 .27-.374 6.025 6.025 0 0 0 .531-2.586zm9.879 4.3a2.035 2.035 0 0 0-.3-1.168.751.751 0 0 0-1.328 0 2 2 0 0 0-.012 2.071.764.764 0 0 0 1.383-.032 1.745 1.745 0 0 0 .253-.869zM136.94 63.682a.941.941 0 0 0 .576.934.742.742 0 0 0 .813-.236 1.122 1.122 0 0 0 .143-1.245.748.748 0 0 0-1.252-.19.96.96 0 0 0-.28.737z"/><path data-name="Trazado 6" d="M171.902 43.958c-2.632 1.688-5.236 3.363-7.875 5.051-.825-1.019-1.654-2.036-2.493-3.071q4.155-2.695 8.311-5.382c.692 1.134 1.366 2.254 2.057 3.402z"/></g><path data-name="MI CUENTA" d="M29.119 21.023l1.847 3.941 1.839-3.941h1.111v5.934h-.872l-.007-4.434-1.767 3.815h-.616l-1.766-3.815v4.434H28v-5.934zm20.581 0v5.934h-.944v-5.934zm34.5 1.619a2.182 2.182 0 0 0-.716-.555 1.917 1.917 0 0 0-.844-.2 1.924 1.924 0 0 0-.788.161 1.968 1.968 0 0 0-.632.441 2.085 2.085 0 0 0-.424.661 2.151 2.151 0 0 0-.156.822 2.151 2.151 0 0 0 .156.822 2.137 2.137 0 0 0 .424.665 1.936 1.936 0 0 0 .632.445 1.924 1.924 0 0 0 .788.161 1.944 1.944 0 0 0 .836-.189 2.526 2.526 0 0 0 .728-.513l.56.661a3.292 3.292 0 0 1-1 .712 2.751 2.751 0 0 1-1.167.263 2.826 2.826 0 0 1-1.149-.233 2.864 2.864 0 0 1-.924-.64 2.984 2.984 0 0 1-.616-.958 3.121 3.121 0 0 1-.224-1.186 3.01 3.01 0 0 1 .228-1.178 2.978 2.978 0 0 1 .624-.945 2.876 2.876 0 0 1 .932-.631 2.921 2.921 0 0 1 1.159-.229 2.9 2.9 0 0 1 1.159.242 2.887 2.887 0 0 1 .967.674zm15.714 1.857a1.638 1.638 0 0 0 .4 1.178 1.447 1.447 0 0 0 1.1.424 1.418 1.418 0 0 0 1.087-.42 1.656 1.656 0 0 0 .4-1.182v-3.476h.939v3.475a3.05 3.05 0 0 1-.164 1.048 2.181 2.181 0 0 1-.48.784 2.09 2.09 0 0 1-.764.5 2.823 2.823 0 0 1-1.023.169 2.823 2.823 0 0 1-1.019-.176 2.129 2.129 0 0 1-.768-.5 2.152 2.152 0 0 1-.484-.784 3.05 3.05 0 0 1-.168-1.047v-3.469h.944zm22.636-3.476v.9h-3.054v1.61h2.735v.89h-2.735v1.635h3.15v.9h-4.094v-5.935zm15.536 0l3 4.263v-4.263h.928v5.934h-.928l-2.984-4.255v4.255h-.944v-5.934zm22.59 0v.9h-1.777v5.034h-.943v-5.034h-1.767v-.9zm17.781 4.595h-2.823l-.535 1.339h-.983l2.47-5.934h.967L180 26.957h-1.007zm-.36-.89l-1.055-2.636-1.056 2.631z" fill="#484848"/></g></g></svg>